<svg width="354" height="422" viewBox="0 0 354 422" fill="none" xmlns="http://www.w3.org/2000/svg">
<g filter="url(#filter0_d_0_1432)">
<path d="M27.1515 2H91.6515M349 413V359.893M5 2V208.27M27.1515 54.3371V28.1685H70.1515V54.3371H91.6515M199.152 54.3371V28.1685M199.152 54.3371H242.152V28.1685V78.9663M199.152 54.3371H177.652M91.6515 2V28.1685M91.6515 2H177M177 2V28.1685M177 2H220.652M220.652 2V28.1685M220.652 2H264.303M286.455 54.3371V28.1685H328.803V78.9663M328.803 105.135V78.9663M328.803 78.9663H307.303M307.303 78.9663V54.3371M307.303 78.9663H264.303M264.303 78.9663V2M264.303 78.9663V104.75M264.303 2H349V130.534M286.455 130.534H264.303V104.75M264.303 104.75H220.652V78.9663H199.152M349 130.534H307.303V105.135M349 130.534V259.067M307.303 105.135V156.702M307.303 105.135H286.455M199.152 104.75V130.726M199.152 156.702V130.726M199.152 130.726H242.152V156.702M242.152 156.702H286.455V183.64M242.152 156.702V208.27H264.303M286.455 210.579V183.64M286.455 183.64H328.803V156.702V232.899M91.6515 54.3371H113.152V28.1685H156.152V54.3371H177.652M91.6515 54.3371V104.75H27.1515V78.9663M27.1515 78.9663H48.6515M27.1515 78.9663V179.792H48.6515V206.346M70.1515 78.9663H48.6515M48.6515 78.9663V54.3371M27.1515 259.067V232.899H48.6515V206.346M134.652 54.3371V78.9663H156.152H113.152V130.534H134.652M134.652 130.534H91.6515M134.652 130.534V156.702H177M70.1515 130.534H91.6515M91.6515 130.534V156.702M177 156.702L177.326 105.52M177 156.702L177.326 179.792H220.652V156.702V232.514M177.652 54.3371L177.326 105.52M177.326 105.52H155.989M134.652 105.52H155.989M155.989 105.52V130.726M349 259.067H307.303M349 259.067V359.893M307.303 259.067V232.514M307.303 259.067V309.095H242.26M307.303 205.961V232.514M307.303 232.514L264.303 232.899M264.303 232.899V208.27M264.303 232.899V259.067H242.152M264.303 180.562V208.27M220.652 232.514H242.152M220.652 232.514V283.697H286.455M286.455 283.697V256.758M286.455 283.697H197.848M48.6515 130.534V156.702H70.1515V180.562H113.152M113.152 180.562V154.393M113.152 180.562H155.989L156.152 205.961H199.152V256.758H177L177.217 309.095M134.652 386.831H177.326H156.152L155.989 335.264H177.326L177.217 309.095M27.1515 208.27H5M5 208.27V283.697M48.6515 206.346H134.652V232.514L155.989 232.706M177.326 232.899L155.989 232.706M155.989 232.706L156.152 309.095H134.652M70.1515 283.697H91.6515M91.6515 283.697H113.152V309.095H134.652M91.6515 283.697V256.758M134.652 283.697V259.067H113.152V232.899H70.1515V256.758H48.6515V283.697M48.6515 283.697H5M48.6515 283.697V309.095H91.6515V335.264H113.152M5 283.697V413H48.6515M177.217 309.095H242.26M328.803 359.893H349M328.803 335.264H307.303V386.831H327.5V413H286.455M328.803 335.264V283.697M328.803 335.264H264.303V386.831H220.652M286.455 413V359.893M286.455 413H199.152M242.26 309.095L242.152 359.893H220.652M220.652 335.264H199.152V359.893M199.152 413V359.893M199.152 413H113.152M199.152 359.893H177M134.652 309.095V359.893H113.152M70.1515 359.893V335.264H27.1515V309.095V384.522M70.1515 359.893V386.831M70.1515 359.893H113.152M48.6515 413V359.893M48.6515 413H91.6515M91.6515 413V386.831M91.6515 413H113.152M113.152 359.893V413" stroke="url(#paint0_linear_0_1432)" stroke-width="4" stroke-linecap="round"/>
</g>
<defs>
<filter id="filter0_d_0_1432" x="0" y="0" width="354" height="422" filterUnits="userSpaceOnUse" color-interpolation-filters="sRGB">
<feFlood flood-opacity="0" result="BackgroundImageFix"/>
<feColorMatrix in="SourceAlpha" type="matrix" values="0 0 0 0 0 0 0 0 0 0 0 0 0 0 0 0 0 0 127 0" result="hardAlpha"/>
<feOffset dy="4"/>
<feGaussianBlur stdDeviation="1.5"/>
<feComposite in2="hardAlpha" operator="out"/>
<feColorMatrix type="matrix" values="0 0 0 0 0 0 0 0 0 0 0 0 0 0 0 0 0 0 0.36 0"/>
<feBlend mode="normal" in2="BackgroundImageFix" result="effect1_dropShadow_0_1432"/>
<feBlend mode="normal" in="SourceGraphic" in2="effect1_dropShadow_0_1432" result="shape"/>
</filter>
<linearGradient id="paint0_linear_0_1432" x1="12.8182" y1="2" x2="358.125" y2="405.185" gradientUnits="userSpaceOnUse">
<stop stop-color="#ACF0FF"/>
<stop offset="1" stop-color="#0073DE"/>
</linearGradient>
</defs>
</svg>
